<svg xmlns="http://www.w3.org/2000/svg" fill="none" viewBox="0 0 256 215">
  <g clip-path="url(#MNFcMUGFva)" fill="#D1D1D6">
    <path d="M114.259 2.701L18.861 42.176c-5.306 2.195-5.25 9.73.088 11.846l95.797 37.99a35.545 35.545 0 0026.208 0l95.799-37.99c5.337-2.115 5.393-9.65.086-11.846L141.443 2.7a35.55 35.55 0 00-27.184 0zm22.09 110.056v94.902c0 4.514 4.552 7.605 8.748 5.942l106.747-41.435a6.39 6.39 0 004.035-5.941V71.323c0-4.514-4.551-7.605-8.747-5.942l-106.748 41.434a6.393 6.393 0 00-4.035 5.942zm-24.926 4.897l-31.68 15.296-3.217 1.555L9.65 166.548C5.41 168.593 0 165.504 0 160.795V71.721c0-1.704.873-3.175 2.045-4.282a7.265 7.265 0 011.618-1.214c1.598-.959 3.878-1.215 5.816-.448l101.411 40.18c5.154 2.045 5.559 9.268.532 11.697z"/>
    <path d="M111.423 117.654l-31.68 15.296L2.046 67.439a7.265 7.265 0 011.618-1.214c1.598-.959 3.878-1.215 5.816-.448l101.411 40.18c5.154 2.045 5.559 9.268.532 11.697z" fill-opacity=".25"/>
  </g>
  <defs>
    <clipPath id="MNFcMUGFva">
      <path fill="#fff" d="M0 0h256v215H0z"/>
    </clipPath>
  </defs>
</svg>
